<mxfile host="app.diagrams.net" modified="2022-12-18T16:19:24.555Z" agent="5.0 (Macintosh)" etag="Cf_lGgjgH9PxEGaHBuG3" version="20.7.4" type="github">
  <diagram id="6a731a19-8d31-9384-78a2-239565b7b9f0" name="Page-1">
    <mxGraphModel dx="1430" dy="779" grid="1" gridSize="10" guides="1" tooltips="1" connect="1" arrows="1" fold="1" page="1" pageScale="1" pageWidth="827" pageHeight="1169" background="none" math="0" shadow="0">
      <root>
        <mxCell id="0" />
        <mxCell id="1" parent="0" />
        <mxCell id="2109" value="Internet" style="shape=mxgraph.cisco.storage.cloud;html=1;dashed=0;strokeColor=#23445D;fillColor=#ffffff;strokeWidth=2;fontFamily=Helvetica;fontSize=24;fontColor=#23445D;align=center;fontStyle=1" parent="1" vertex="1">
          <mxGeometry x="320" y="80" width="186" height="106" as="geometry" />
        </mxCell>
        <mxCell id="yCe4kNAUbi8Ypd6bhDhu-2257" value="" style="endArrow=none;html=1;rounded=0;exitX=0.98;exitY=0.5;exitDx=0;exitDy=0;exitPerimeter=0;" edge="1" parent="1" source="2109">
          <mxGeometry width="50" height="50" relative="1" as="geometry">
            <mxPoint x="1310" y="620" as="sourcePoint" />
            <mxPoint x="710" y="133" as="targetPoint" />
          </mxGeometry>
        </mxCell>
        <mxCell id="yCe4kNAUbi8Ypd6bhDhu-2258" value="" style="rounded=0;whiteSpace=wrap;html=1;" vertex="1" parent="1">
          <mxGeometry x="920" y="20" width="480" height="300" as="geometry" />
        </mxCell>
        <mxCell id="yCe4kNAUbi8Ypd6bhDhu-2259" value="FW&lt;br&gt;ExternÃ­" style="shape=mxgraph.cisco.security.firewall;sketch=0;html=1;pointerEvents=1;dashed=0;fillColor=#036897;strokeColor=#ffffff;strokeWidth=2;verticalLabelPosition=top;verticalAlign=bottom;align=center;outlineConnect=0;labelPosition=center;" vertex="1" parent="1">
          <mxGeometry x="710" y="66" width="70" height="120" as="geometry" />
        </mxCell>
        <mxCell id="yCe4kNAUbi8Ypd6bhDhu-2260" value="" style="endArrow=none;html=1;rounded=0;exitX=1;exitY=0.5;exitDx=0;exitDy=0;exitPerimeter=0;entryX=0.002;entryY=0.353;entryDx=0;entryDy=0;entryPerimeter=0;" edge="1" parent="1" source="yCe4kNAUbi8Ypd6bhDhu-2259" target="yCe4kNAUbi8Ypd6bhDhu-2258">
          <mxGeometry width="50" height="50" relative="1" as="geometry">
            <mxPoint x="1310" y="620" as="sourcePoint" />
            <mxPoint x="1360" y="570" as="targetPoint" />
          </mxGeometry>
        </mxCell>
        <mxCell id="yCe4kNAUbi8Ypd6bhDhu-2264" value="Progtest" style="aspect=fixed;perimeter=ellipsePerimeter;html=1;align=center;shadow=0;dashed=0;spacingTop=3;image;image=img/lib/active_directory/web_server.svg;" vertex="1" parent="1">
          <mxGeometry x="1160" y="230" width="40" height="50" as="geometry" />
        </mxCell>
        <mxCell id="yCe4kNAUbi8Ypd6bhDhu-2265" value="Other SQL Server" style="aspect=fixed;perimeter=ellipsePerimeter;html=1;align=center;shadow=0;dashed=0;spacingTop=3;image;image=img/lib/active_directory/database_server.svg;" vertex="1" parent="1">
          <mxGeometry x="1290" y="220" width="41" height="50" as="geometry" />
        </mxCell>
        <mxCell id="yCe4kNAUbi8Ypd6bhDhu-2266" value="KOS SQL Server" style="aspect=fixed;perimeter=ellipsePerimeter;html=1;align=center;shadow=0;dashed=0;spacingTop=3;image;image=img/lib/active_directory/database_server.svg;labelPosition=center;verticalLabelPosition=top;verticalAlign=bottom;" vertex="1" parent="1">
          <mxGeometry x="1290" y="40" width="41" height="50" as="geometry" />
        </mxCell>
        <mxCell id="yCe4kNAUbi8Ypd6bhDhu-2267" value="ADFS" style="aspect=fixed;perimeter=ellipsePerimeter;html=1;align=center;shadow=0;dashed=0;spacingTop=3;image;image=img/lib/active_directory/windows_server_2.svg;" vertex="1" parent="1">
          <mxGeometry x="1050" y="230" width="40" height="50" as="geometry" />
        </mxCell>
        <mxCell id="yCe4kNAUbi8Ypd6bhDhu-2270" value="Apache Proxy" style="aspect=fixed;perimeter=ellipsePerimeter;html=1;align=center;shadow=0;dashed=0;spacingTop=3;image;image=img/lib/active_directory/web_server.svg;labelPosition=center;verticalLabelPosition=top;verticalAlign=bottom;" vertex="1" parent="1">
          <mxGeometry x="1050" y="40" width="40" height="50" as="geometry" />
        </mxCell>
        <mxCell id="yCe4kNAUbi8Ypd6bhDhu-2271" value="DMZ Zone" style="text;html=1;align=center;verticalAlign=middle;resizable=0;points=[];autosize=1;strokeColor=none;fillColor=none;" vertex="1" parent="1">
          <mxGeometry x="1115" width="80" height="30" as="geometry" />
        </mxCell>
        <mxCell id="yCe4kNAUbi8Ypd6bhDhu-2272" value="" style="aspect=fixed;perimeter=ellipsePerimeter;html=1;align=center;shadow=0;dashed=0;spacingTop=3;image;image=img/lib/active_directory/wiring_hub.svg;" vertex="1" parent="1">
          <mxGeometry x="930" y="153" width="50" height="34" as="geometry" />
        </mxCell>
        <mxCell id="yCe4kNAUbi8Ypd6bhDhu-2275" value="" style="endArrow=none;html=1;rounded=0;" edge="1" parent="1">
          <mxGeometry width="50" height="50" relative="1" as="geometry">
            <mxPoint x="980" y="170" as="sourcePoint" />
            <mxPoint x="1310" y="170" as="targetPoint" />
          </mxGeometry>
        </mxCell>
        <mxCell id="yCe4kNAUbi8Ypd6bhDhu-2276" value="" style="endArrow=none;html=1;rounded=0;exitX=0.5;exitY=1;exitDx=0;exitDy=0;" edge="1" parent="1" source="yCe4kNAUbi8Ypd6bhDhu-2270">
          <mxGeometry width="50" height="50" relative="1" as="geometry">
            <mxPoint x="970" y="220" as="sourcePoint" />
            <mxPoint x="1070" y="170" as="targetPoint" />
          </mxGeometry>
        </mxCell>
        <mxCell id="yCe4kNAUbi8Ypd6bhDhu-2278" value="" style="endArrow=none;html=1;rounded=0;exitX=0.5;exitY=0;exitDx=0;exitDy=0;" edge="1" parent="1" source="yCe4kNAUbi8Ypd6bhDhu-2267">
          <mxGeometry width="50" height="50" relative="1" as="geometry">
            <mxPoint x="970" y="220" as="sourcePoint" />
            <mxPoint x="1070" y="170" as="targetPoint" />
          </mxGeometry>
        </mxCell>
        <mxCell id="yCe4kNAUbi8Ypd6bhDhu-2279" value="" style="endArrow=none;html=1;rounded=0;exitX=0.5;exitY=0;exitDx=0;exitDy=0;" edge="1" parent="1" source="yCe4kNAUbi8Ypd6bhDhu-2264">
          <mxGeometry width="50" height="50" relative="1" as="geometry">
            <mxPoint x="970" y="220" as="sourcePoint" />
            <mxPoint x="1180" y="170" as="targetPoint" />
          </mxGeometry>
        </mxCell>
        <mxCell id="yCe4kNAUbi8Ypd6bhDhu-2280" value="" style="endArrow=none;html=1;rounded=0;exitX=0.5;exitY=1;exitDx=0;exitDy=0;" edge="1" parent="1" source="yCe4kNAUbi8Ypd6bhDhu-2266">
          <mxGeometry width="50" height="50" relative="1" as="geometry">
            <mxPoint x="970" y="220" as="sourcePoint" />
            <mxPoint x="1310" y="170" as="targetPoint" />
          </mxGeometry>
        </mxCell>
        <mxCell id="yCe4kNAUbi8Ypd6bhDhu-2281" value="" style="endArrow=none;html=1;rounded=0;exitX=0.5;exitY=0;exitDx=0;exitDy=0;" edge="1" parent="1" source="yCe4kNAUbi8Ypd6bhDhu-2265">
          <mxGeometry width="50" height="50" relative="1" as="geometry">
            <mxPoint x="970" y="220" as="sourcePoint" />
            <mxPoint x="1310" y="170" as="targetPoint" />
          </mxGeometry>
        </mxCell>
      </root>
    </mxGraphModel>
  </diagram>
</mxfile>
